<?xml version="1.0" encoding="UTF-8"?><svg id="a" xmlns="http://www.w3.org/2000/svg" viewBox="0 0 32 32"><defs><style>.b{fill:#fff;}.c{fill:#165dd6;}</style></defs><rect class="c" x="0" width="32" height="32" rx="6.42" ry="6.42"/><path class="b" d="M14.05,6.07V24.42c0,.25,0,.5,0,.74,0,.01,0,.02,0,.03,0,.34,.15,.7,.39,.94s.61,.4,.94,.39c.72-.03,1.33-.58,1.33-1.33V6.85c0-.25,0-.5,0-.74,0-.01,0-.02,0-.03,0-.34-.15-.7-.39-.94s-.61-.4-.94-.39c-.72,.03-1.33,.58-1.33,1.33h0Z"/><line class="b" x1="7.11" y1="10.78" x2="23.65" y2="20.38"/><path class="b" d="M6.44,11.92l.44,.26,1.2,.7,1.77,1.03,2.17,1.26,2.38,1.38,2.4,1.4,2.24,1.3,1.89,1.1,1.36,.79c.22,.13,.43,.25,.65,.38l.03,.02c.3,.17,.69,.23,1.02,.13,.31-.08,.64-.32,.79-.61,.16-.31,.24-.68,.13-1.02s-.31-.62-.61-.79l-.44-.26-1.2-.7-1.77-1.03-2.17-1.26-2.38-1.38-2.4-1.4-2.24-1.3-1.89-1.1-1.36-.79c-.22-.13-.43-.25-.65-.38l-.03-.02c-.3-.17-.69-.23-1.02-.13-.31,.08-.64,.32-.79,.61-.16,.31-.24,.68-.13,1.02s.31,.62,.61,.79h0Z"/><line class="b" x1="23.65" y1="10.8" x2="7.11" y2="20.41"/><path class="b" d="M22.98,9.66l-.44,.26-1.2,.7-1.77,1.03-2.17,1.26-2.38,1.38-2.4,1.4-2.24,1.3-1.89,1.1-1.36,.79c-.22,.13-.43,.25-.65,.38l-.03,.02c-.29,.17-.52,.47-.61,.79s-.05,.74,.13,1.02,.45,.53,.79,.61,.71,.05,1.02-.13l.44-.26,1.2-.7,1.77-1.03,2.17-1.26,2.38-1.38,2.4-1.4,2.24-1.3,1.89-1.1,1.36-.79c.22-.13,.43-.25,.65-.38l.03-.02c.29-.17,.52-.47,.61-.79s.05-.74-.13-1.02-.45-.53-.79-.61-.71-.05-1.02,.13h0Z"/><path class="b" d="M12.38,8.27l2.28,1.67,.32,.24c.21,.16,.62,.16,.84,0l2.23-1.67,.31-.24c.18-.13,.32-.27,.38-.5,.05-.2,.03-.46-.08-.64s-.28-.33-.5-.38-.46-.05-.64,.08l-2.23,1.67-.31,.24h.84l-2.28-1.67-.32-.24c-.16-.12-.45-.13-.64-.08s-.4,.2-.5,.38c-.1,.19-.15,.43-.08,.64s.2,.36,.38,.5h0Z"/><path class="b" d="M13.21,24.38l2.28-1.67,.32-.24h-.84l2.23,1.67,.31,.24c.16,.12,.45,.13,.64,.08s.4-.2,.5-.38c.1-.19,.15-.43,.08-.64s-.2-.36-.38-.5l-2.23-1.67-.31-.24c-.21-.16-.62-.16-.84,0l-2.28,1.67-.32,.24c-.18,.13-.32,.27-.38,.5-.05,.2-.03,.46,.08,.64,.22,.35,.76,.57,1.13,.3h0Z"/><path class="b" d="M20.1,9.3l-.1,2.82v.4c-.03,.38,.26,.68,.59,.8l2.64,.9,.37,.13c.41,.14,.92-.16,1.02-.58,.1-.46-.14-.87-.58-1.02l-2.64-.9-.37-.13,.61,.8,.1-2.82v-.4c.03-.43-.38-.85-.81-.83-.46,.02-.81,.36-.83,.83h0Z"/><path class="b" d="M9.03,9.3l.1,2.82v.4l.62-.8-2.64,.9-.37,.13c-.41,.14-.72,.58-.58,1.02,.13,.41,.58,.73,1.02,.58l2.64-.9,.37-.13c.34-.12,.62-.42,.61-.8l-.1-2.82v-.4c-.03-.43-.38-.85-.84-.83s-.85,.36-.83,.83h0Z"/><path class="b" d="M21.59,21.81l-.1-2.82v-.4l-.62,.8,2.64-.9,.37-.13c.41-.14,.72-.58,.58-1.02-.13-.41-.58-.73-1.02-.58l-2.64,.9-.37,.13c-.34,.12-.62,.42-.61,.8l.1,2.82v.4c.03,.43,.38,.85,.84,.83s.85-.36,.83-.83h0Z"/><path class="b" d="M10.71,21.92l.1-2.82v-.4c.03-.38-.26-.68-.59-.8l-2.64-.9-.37-.13c-.41-.14-.92,.16-1.02,.58-.1,.46,.14,.87,.58,1.02l2.64,.9,.37,.13-.61-.8-.1,2.82v.4c-.03,.43,.38,.85,.81,.83,.46-.02,.81-.36,.83-.83h0Z"/></svg>